<svg xmlns="http://www.w3.org/2000/svg" viewBox="0 0 1440 280" xmlns:v="https://vecta.io/nano"><path fill="#62170877" d="M0 224l14.1-26.7C28.2 171 56 117 85 122.7c27.9 5.3 56 69.3 84 101.3 28.6 32 57 32 85 21.3 28.4-10.3 57-32.3 85-58.6 28.1-26.7 56-58.7 85-69.4 27.8-10.3 56-.3 84 5.4 28.5 5.3 57 5.3 85 21.3 28.2 16 56 48 85 42.7 27.9-5.7 56-47.7 84-69.4 28.6-21.3 57-21.3 85-10.6 28.3 10.3 57 32.3 85 21.3s56-53 84-58.7c28.7-5.3 57 26.7 85 42.7 28.4 16 57 16 85 0 28.1-16 56-48 85-26.7 27.8 21.7 56 95.7 84 101.4 28.5 5.3 57-58.7 71-90.7l14-32V0h-14.1-70.9-84-85-85-85-84-85-85-84-85-85-84-85-85-85-84-71H0z"/></svg>